<?xml version="1.0" standalone="no"?>
<!DOCTYPE svg PUBLIC "-//W3C//DTD SVG 20010904//EN"
 "http://www.w3.org/TR/2001/REC-SVG-20010904/DTD/svg10.dtd">
<svg version="1.0" xmlns="http://www.w3.org/2000/svg"
 width="1587.000000pt" height="2245.000000pt" viewBox="0 0 1587.000000 2245.000000"
 preserveAspectRatio="xMidYMid meet">

<g transform="translate(0.000000,2245.000000) scale(0.100000,-0.100000)"
fill="#000000" stroke="none">
<path d="M4475 13509 c-110 -8 -250 -34 -337 -63 -87 -28 -217 -84 -239 -103
-8 -7 -19 -13 -24 -13 -12 0 -143 -88 -207 -139 -74 -59 -179 -157 -198 -186
-16 -24 -89 -119 -113 -145 -15 -19 -83 -138 -113 -201 -20 -41 -32 -66 -65
-144 -15 -36 -72 -231 -84 -290 -8 -35 -23 -157 -35 -277 -9 -89 -9 -141 0
-225 20 -184 29 -257 34 -278 2 -11 11 -49 20 -85 21 -92 45 -182 56 -205 4
-11 11 -29 13 -40 7 -27 46 -133 62 -170 7 -16 21 -50 32 -74 64 -154 217
-428 317 -569 56 -78 222 -276 293 -347 159 -161 336 -303 508 -406 39 -23 81
-49 95 -58 84 -53 328 -167 420 -197 25 -8 54 -19 65 -25 11 -5 45 -17 75 -25
30 -8 87 -24 125 -35 125 -35 340 -71 500 -83 260 -20 237 -21 600 18 72 8
155 19 185 26 138 28 247 52 265 60 11 5 34 11 50 15 91 18 365 110 555 185
30 12 73 29 95 37 22 8 44 18 50 22 5 4 42 21 80 37 114 47 394 189 570 289
175 99 622 392 740 485 33 26 65 49 70 51 21 8 321 237 344 263 32 34 48 33
120 -9 32 -19 64 -35 69 -35 6 0 17 -6 24 -13 10 -10 460 -236 533 -267 73
-32 124 -54 150 -65 17 -8 59 -26 95 -40 36 -14 79 -33 97 -41 17 -8 35 -14
39 -14 7 0 61 -20 139 -51 11 -4 38 -13 60 -19 22 -6 49 -15 60 -20 11 -5 61
-21 110 -35 50 -15 106 -32 125 -40 19 -7 55 -16 80 -20 25 -4 52 -11 60 -15
9 -5 49 -16 90 -25 41 -9 116 -25 165 -36 95 -21 299 -46 453 -56 111 -7 351
19 462 49 89 25 185 55 208 67 9 4 39 19 67 32 27 13 67 37 90 52 22 15 56 38
75 51 39 27 167 157 193 196 9 14 30 44 47 68 40 57 126 237 135 282 3 19 10
44 15 55 18 38 49 300 45 375 -5 108 -35 361 -44 379 -5 9 -12 34 -15 56 -8
40 -40 153 -56 190 -4 11 -20 56 -35 100 -15 44 -33 94 -40 110 -7 17 -25 62
-40 100 -38 96 -79 156 -130 188 -137 87 -229 -54 -156 -238 6 -16 21 -55 33
-85 11 -30 24 -64 28 -75 35 -89 86 -261 96 -320 4 -22 10 -44 14 -50 30 -39
46 -441 23 -558 -30 -147 -94 -269 -194 -367 -93 -93 -192 -139 -379 -176 -53
-10 -367 -6 -435 6 -33 6 -85 15 -116 20 -57 8 -208 43 -264 59 -16 5 -56 15
-88 22 -32 7 -60 16 -63 21 -3 4 -14 8 -24 8 -11 0 -39 6 -62 14 -24 7 -83 26
-133 41 -121 36 -323 104 -362 121 -17 8 -35 14 -39 14 -19 0 -375 148 -529
220 -179 83 -335 164 -333 171 2 4 77 83 168 176 209 214 375 393 470 508 41
49 88 104 104 122 16 18 38 45 50 61 11 16 75 97 141 178 66 82 167 210 225
284 148 190 230 293 248 308 12 9 13 12 2 12 -16 0 -236 -221 -329 -330 -218
-256 -702 -752 -956 -980 -70 -63 -133 -119 -139 -125 -43 -39 -155 -125 -162
-125 -13 0 -151 72 -252 131 -45 27 -85 49 -87 49 -11 0 -470 269 -875 513
-146 88 -274 165 -285 171 -11 6 -40 25 -65 41 -25 16 -54 34 -65 40 -42 23
-71 41 -115 70 -39 27 -84 54 -244 150 -19 11 -59 36 -90 55 -58 36 -72 44
-191 115 -37 22 -75 45 -84 50 -9 6 -34 21 -56 33 -22 12 -53 31 -70 42 -16
11 -43 27 -60 35 -16 9 -52 30 -80 47 -27 17 -70 42 -95 55 -25 13 -63 34 -85
46 -205 116 -632 337 -650 337 -3 0 -38 15 -77 34 -115 54 -179 83 -228 101
-25 9 -58 23 -75 30 -47 21 -203 81 -275 104 -36 12 -78 27 -95 32 -40 14
-124 37 -216 58 -42 10 -81 21 -85 24 -5 3 -72 14 -149 25 -153 23 -315 31
-440 21z m368 -387 c7 -5 46 -14 87 -21 41 -6 89 -16 105 -21 105 -32 323
-102 340 -110 34 -15 88 -37 135 -55 40 -15 88 -36 185 -80 94 -42 409 -200
460 -230 33 -19 69 -39 80 -44 58 -25 516 -297 685 -406 19 -13 82 -53 140
-90 58 -37 137 -89 177 -116 39 -27 74 -49 76 -49 3 0 69 -43 148 -95 78 -52
143 -95 145 -95 2 0 52 -33 112 -72 60 -40 116 -77 125 -83 51 -31 289 -184
329 -212 26 -18 50 -33 52 -33 2 0 34 -19 69 -42 67 -44 194 -125 225 -143 22
-13 127 -78 272 -167 152 -94 157 -97 237 -142 66 -38 85 -54 80 -68 -4 -12
-401 -273 -537 -353 -36 -21 -72 -44 -80 -50 -8 -7 -40 -25 -70 -41 -30 -15
-62 -33 -70 -40 -8 -6 -40 -25 -70 -41 -481 -262 -758 -387 -1120 -504 -52
-17 -104 -35 -115 -39 -62 -25 -177 -56 -320 -86 -38 -9 -79 -19 -90 -24 -30
-13 -236 -48 -365 -62 -212 -24 -597 -12 -755 23 -27 6 -77 17 -110 24 -77 17
-174 43 -200 54 -11 5 -49 19 -85 31 -166 57 -377 164 -545 278 -273 185 -521
445 -703 736 -76 122 -217 405 -236 476 -4 14 -11 34 -16 45 -17 35 -60 177
-60 194 0 9 -4 21 -9 27 -8 8 -28 110 -52 259 -10 67 -10 349 1 405 4 25 13
72 19 105 12 65 45 183 66 230 7 17 16 41 20 55 27 93 167 310 252 391 166
159 353 254 568 289 64 11 403 4 418 -8z m7986 -1196 c-2 -2 -13 8 -23 22
l-19 27 24 -22 c12 -12 21 -24 18 -27z m-54 5 c-3 -5 0 -13 6 -16 5 -4 8 -14
5 -22 -3 -8 -1 -11 4 -8 6 4 17 -10 26 -30 8 -21 18 -35 21 -32 3 3 -2 20 -11
38 -19 39 -20 49 -3 49 32 0 96 -207 121 -390 18 -130 23 -576 6 -565 -5 3 -7
-14 -3 -46 4 -32 2 -50 -3 -46 -6 3 -15 -38 -22 -97 -7 -56 -21 -134 -32 -173
-11 -40 -17 -80 -14 -90 5 -15 4 -16 -6 -3 -10 13 -11 11 -7 -8 3 -12 2 -20
-3 -17 -11 7 -21 -22 -13 -42 4 -11 3 -14 -5 -9 -7 4 -13 1 -14 -6 0 -7 -2
-18 -2 -23 -1 -6 -11 -22 -24 -35 -24 -26 -27 -37 -12 -42 5 -1 0 -14 -11 -28
-20 -24 -20 -24 -9 -2 20 40 5 35 -25 -9 -43 -61 -160 -165 -237 -210 -181
-106 -458 -151 -698 -114 -62 9 -129 23 -149 31 l-36 14 40 -5 c22 -3 79 -8
127 -12 48 -3 85 -10 82 -15 -9 -14 220 -1 300 17 125 28 257 75 313 111 30
19 53 38 50 41 -3 3 -18 -4 -34 -14 -38 -26 -53 -35 -53 -30 0 2 26 21 58 42
31 21 51 31 43 22 -8 -10 -9 -17 -3 -17 11 0 27 19 27 32 0 4 17 28 38 53 22
25 40 52 41 59 1 7 9 24 17 37 40 62 111 220 105 234 -3 9 -2 14 3 10 13 -8
43 132 36 169 -4 25 -3 27 5 11 7 -15 9 -9 8 30 0 28 3 68 7 90 3 22 9 117 12
212 5 158 -2 298 -27 569 -10 115 -53 262 -78 272 -14 5 -12 7 8 13 14 4 26 7
28 8 2 1 1 -3 -3 -8z m-3252 -1068 c-7 -2 -19 -2 -25 0 -7 3 -2 5 12 5 14 0
19 -2 13 -5z m-106 -17 c-4 -9 1 -16 11 -18 9 -2 -2 -9 -25 -15 -24 -6 -40 -7
-37 -2 3 5 15 9 27 9 18 0 19 2 7 10 -13 9 -13 10 0 11 10 0 8 3 -5 9 -19 8
-19 9 4 9 16 1 21 -3 18 -13z m251 -1 c3 -3 -7 -5 -21 -5 -40 0 -33 -17 11
-26 l37 -7 -40 -8 c-22 -4 -56 -8 -75 -7 l-35 1 33 6 c36 7 43 21 15 32 -15 7
-15 8 5 8 13 1 20 5 17 11 -7 11 42 6 53 -5z m-105 -2 c-7 -2 -21 -2 -30 0
-10 3 -4 5 12 5 17 0 24 -2 18 -5z m306 -47 c16 -9 19 -14 10 -18 -8 -2 -22 4
-31 14 -21 21 -13 23 21 4z m-522 -2 c-3 -3 -12 -4 -19 -1 -8 3 -5 6 6 6 11 1
17 -2 13 -5z m410 0 c-3 -3 -12 -4 -19 -1 -8 3 -5 6 6 6 11 1 17 -2 13 -5z m0
-51 c-7 -7 -57 8 -57 18 0 4 14 3 31 -3 16 -6 28 -12 26 -15z m243 6 c12 -9
11 -10 -5 -4 -19 6 -19 6 1 -13 29 -27 82 -54 86 -43 2 5 16 -5 32 -21 29 -29
28 -29 -50 10 -73 37 -124 82 -92 82 7 0 20 -5 28 -11z m-165 -37 c-3 -3 -11
0 -18 7 -9 10 -8 11 6 5 10 -3 15 -9 12 -12z m3092 -79 c-3 -10 -5 -2 -5 17 0
19 2 27 5 18 2 -10 2 -26 0 -35z m-2676 12 c24 -14 37 -25 28 -25 -8 0 -30 11
-49 25 -43 32 -34 32 21 0z m-70 2 c-9 -11 -3 -16 27 -26 21 -7 44 -22 51 -33
10 -16 1 -13 -47 14 -52 28 -58 34 -43 45 21 16 26 16 12 0z m146 -33 c-3 -3
-12 -4 -19 -1 -8 3 -5 6 6 6 11 1 17 -2 13 -5z m-47 -70 c0 -2 -9 0 -20 6 -11
6 -20 13 -20 16 0 2 9 0 20 -6 11 -6 20 -13 20 -16z m186 0 c18 -14 18 -14 -6
-3 -31 14 -36 19 -24 19 6 0 19 -7 30 -16z m-90 -19 c24 -18 7 -19 -26 0 -16
9 -19 14 -9 15 8 0 24 -7 35 -15z m-11 -25 c3 -6 -1 -7 -9 -4 -18 7 -21 14 -7
14 6 0 13 -4 16 -10z m235 -22 c0 -12 -6 -9 -26 13 -19 22 -19 22 4 8 12 -8
22 -17 22 -21z m-160 -24 c0 -2 -13 2 -30 11 -16 9 -30 18 -30 21 0 2 14 -2
30 -11 17 -9 30 -18 30 -21z m230 -6 c0 -6 -6 -5 -15 2 -8 7 -15 14 -15 16 0
2 7 1 15 -2 8 -4 15 -11 15 -16z m99 -48 c13 -6 21 -14 18 -16 -2 -2 -17 2
-33 11 -16 8 -34 15 -41 15 -6 0 -14 4 -18 9 -6 11 41 -1 74 -19z m-164 -8
c-3 -3 -11 0 -18 7 -9 10 -8 11 6 5 10 -3 15 -9 12 -12z m176 -42 c57 -28 93
-47 79 -44 -34 9 -208 92 -194 93 6 1 58 -22 115 -49z m-75 -8 c-5 -4 -86 36
-86 43 0 3 20 -5 45 -17 24 -12 43 -23 41 -26z m179 -2 c12 -19 -12 -10 -31
11 -19 22 -19 22 3 10 12 -6 25 -16 28 -21z m-274 -17 c13 -15 12 -15 -8 -4
-24 12 -29 21 -14 21 5 0 15 -7 22 -17z m2034 -4 c-5 -28 -11 -33 -25 -24 -8
5 -6 13 6 26 22 24 24 24 19 -2z m-1880 -7 c-3 -3 -11 0 -18 7 -9 10 -8 11 6
5 10 -3 15 -9 12 -12z m190 8 c18 -8 18 -9 -5 -9 -14 0 -32 4 -40 9 -12 8 -12
10 5 9 11 0 29 -4 40 -9z m35 -64 c30 -14 49 -26 42 -26 -16 0 -142 57 -142
64 0 7 27 -4 100 -38z m55 24 c3 -5 -1 -10 -9 -10 -9 0 -16 5 -16 10 0 6 4 10
9 10 6 0 13 -4 16 -10z m-285 -20 c8 -5 11 -10 5 -10 -5 0 -17 5 -25 10 -8 5
-10 10 -5 10 6 0 17 -5 25 -10z m45 -20 c3 -6 -1 -7 -9 -4 -18 7 -21 14 -7 14
6 0 13 -4 16 -10z m330 -46 c28 -13 39 -21 25 -18 -29 7 -100 43 -85 43 6 0
33 -11 60 -25z m-58 -10 c38 -14 82 -32 98 -40 17 -8 62 -25 100 -39 39 -14
55 -23 37 -20 -31 4 -266 95 -302 116 -28 16 -1 9 67 -17z m1373 -9 c0 -2 -10
-9 -22 -15 -22 -11 -22 -10 -4 4 21 17 26 19 26 11z m-1055 -15 c3 -5 -1 -10
-9 -10 -9 0 -16 5 -16 10 0 6 4 10 9 10 6 0 13 -4 16 -10z m209 -58 c2 -4 -4
-9 -15 -9 -11 -1 -17 2 -14 8 7 11 22 12 29 1z m656 -12 c-8 -5 -22 -10 -30
-10 -13 0 -13 1 0 10 8 5 22 10 30 10 13 0 13 -1 0 -10z m180 -4 c0 -2 -7 -7
-16 -10 -8 -3 -12 -2 -9 4 6 10 25 14 25 6z m-80 -36 c-8 -5 -19 -10 -25 -10
-5 0 -3 5 5 10 8 5 20 10 25 10 6 0 3 -5 -5 -10z m-690 -10 c24 -8 24 -8 -5
-8 -16 0 -41 4 -55 8 -24 8 -24 8 5 8 17 0 41 -4 55 -8z m-183 -6 c-3 -3 -12
-4 -19 -1 -8 3 -5 6 6 6 11 1 17 -2 13 -5z m305 -16 c74 -16 77 -24 10 -20
-73 3 -102 10 -102 22 0 13 27 13 92 -2z m653 -18 c-3 -5 -12 -10 -18 -10 -7
0 -6 4 3 10 19 12 23 12 15 0z m-855 -30 c13 -9 13 -10 0 -10 -8 0 -22 5 -30
10 -13 9 -13 10 0 10 8 0 22 -5 30 -10z m705 -20 c-11 -5 -27 -9 -35 -9 -9 0
-8 4 5 9 11 5 27 9 35 9 9 0 8 -4 -5 -9z m-497 -27 c-10 -2 -26 -2 -35 0 -10
3 -2 5 17 5 19 0 27 -2 18 -5z m375 0 c-7 -2 -21 -2 -30 0 -10 3 -4 5 12 5 17
0 24 -2 18 -5z m-310 -10 c-7 -2 -19 -2 -25 0 -7 3 -2 5 12 5 14 0 19 -2 13
-5z m44 1 c-3 -3 -12 -4 -19 -1 -8 3 -5 6 6 6 11 1 17 -2 13 -5z m101 -1 c-10
-2 -26 -2 -35 0 -10 3 -2 5 17 5 19 0 27 -2 18 -5z m90 0 c-10 -2 -28 -2 -40
0 -13 2 -5 4 17 4 22 1 32 -1 23 -4z"/>
<path d="M12800 11808 c0 -7 5 -20 10 -28 8 -11 9 -9 8 13 -2 26 -18 40 -18
15z"/>
<path d="M12841 11779 c-1 -19 6 -44 14 -55 18 -23 18 -22 0 41 -13 48 -14 49
-14 14z"/>
<path d="M12821 11730 c0 -8 4 -22 9 -30 12 -18 12 -2 0 25 -6 13 -9 15 -9 5z"/>
<path d="M12865 11650 c3 -14 7 -47 10 -75 3 -39 2 -43 -4 -20 -7 25 -8 23 -5
-14 2 -24 4 -67 5 -95 0 -38 3 -46 9 -31 7 15 9 11 8 -20 -1 -22 0 -146 1
-275 3 -187 5 -220 12 -160 11 104 14 386 5 495 -8 99 -23 182 -38 205 -7 11
-8 8 -3 -10z m22 -182 c-3 -8 -6 -5 -6 6 -1 11 2 17 5 13 3 -3 4 -12 1 -19z"/>
<path d="M12943 11060 c0 -36 2 -50 4 -32 2 17 2 47 0 65 -2 17 -4 3 -4 -33z"/>
<path d="M12881 10804 c0 -11 3 -14 6 -6 3 7 2 16 -1 19 -3 4 -6 -2 -5 -13z"/>
<path d="M12870 10733 c0 -12 -5 -23 -11 -25 -6 -2 -7 -12 -1 -28 8 -22 9 -20
16 19 4 24 4 46 1 49 -3 3 -5 -4 -5 -15z"/>
<path d="M12844 10623 c-1 -43 0 -45 9 -20 5 17 6 37 1 48 -7 14 -9 7 -10 -28z"/>
<path d="M12796 10515 c-9 -26 -7 -32 5 -12 6 10 9 21 6 23 -2 3 -7 -2 -11
-11z"/>
<path d="M12777 10425 c-15 -30 -25 -55 -22 -55 7 0 57 101 53 106 -2 2 -16
-21 -31 -51z"/>
<path d="M12729 10338 c-7 -12 -44 -56 -82 -95 -39 -40 -66 -73 -60 -73 21 0
172 175 160 186 -3 3 -11 -5 -18 -18z"/>
</g>
</svg>
