<svg xmlns="http://www.w3.org/2000/svg" xmlns:xlink="http://www.w3.org/1999/xlink" width="300" zoomAndPan="magnify" viewBox="0 0 224.87999 225" height="300" preserveAspectRatio="xMidYMid meet" version="1.0"><defs><clipPath id="id1"><path d="M 154 3.292969 L 206.667969 3.292969 L 206.667969 221 L 154 221 Z M 154 3.292969 " clip-rule="nonzero"/></clipPath><clipPath id="id2"><path d="M 18.519531 169 L 71 169 L 71 221 L 18.519531 221 Z M 18.519531 169 " clip-rule="nonzero"/></clipPath></defs><g clip-path="url(#id1)"><path fill="#ec5cef" d="M 154.617188 29.710938 L 154.617188 192.539062 C 154.617188 210.761719 167.234375 220.914062 180.597656 220.914062 C 192.96875 220.914062 206.578125 212.277344 206.578125 192.539062 L 206.578125 30.945312 C 206.578125 14.242188 194.207031 3.804688 180.597656 3.804688 C 166.988281 3.804688 154.617188 15.316406 154.617188 29.710938 Z M 154.617188 29.710938 " fill-opacity="1" fill-rule="nonzero"/></g><path fill="#ec5cef" d="M 86.566406 112.359375 L 86.566406 192.539062 C 86.566406 210.761719 99.1875 220.914062 112.550781 220.914062 C 124.921875 220.914062 138.53125 212.277344 138.53125 192.539062 L 138.53125 113.59375 C 138.53125 96.890625 126.160156 86.453125 112.550781 86.453125 C 98.941406 86.453125 86.566406 97.964844 86.566406 112.359375 Z M 86.566406 112.359375 " fill-opacity="1" fill-rule="nonzero"/><g clip-path="url(#id2)"><path fill="#ec5cef" d="M 70.484375 195.007812 C 70.484375 195.855469 70.441406 196.703125 70.359375 197.546875 C 70.277344 198.390625 70.152344 199.230469 69.984375 200.0625 C 69.820312 200.894531 69.613281 201.714844 69.363281 202.527344 C 69.117188 203.339844 68.832031 204.136719 68.507812 204.921875 C 68.179688 205.703125 67.816406 206.46875 67.417969 207.21875 C 67.015625 207.96875 66.578125 208.695312 66.105469 209.398438 C 65.632812 210.105469 65.125 210.785156 64.585938 211.441406 C 64.046875 212.097656 63.476562 212.726562 62.875 213.324219 C 62.273438 213.925781 61.644531 214.492188 60.984375 215.03125 C 60.328125 215.570312 59.644531 216.074219 58.9375 216.546875 C 58.230469 217.019531 57.5 217.453125 56.75 217.851562 C 56 218.253906 55.230469 218.617188 54.445312 218.941406 C 53.660156 219.265625 52.859375 219.550781 52.042969 219.796875 C 51.230469 220.042969 50.40625 220.25 49.570312 220.414062 C 48.738281 220.578125 47.894531 220.703125 47.046875 220.789062 C 46.203125 220.871094 45.351562 220.914062 44.503906 220.914062 C 43.652344 220.914062 42.800781 220.871094 41.957031 220.789062 C 41.109375 220.703125 40.269531 220.578125 39.433594 220.414062 C 38.597656 220.25 37.773438 220.042969 36.960938 219.796875 C 36.144531 219.550781 35.34375 219.265625 34.558594 218.941406 C 33.773438 218.617188 33.003906 218.253906 32.253906 217.851562 C 31.503906 217.453125 30.773438 217.019531 30.066406 216.546875 C 29.359375 216.074219 28.675781 215.570312 28.019531 215.03125 C 27.363281 214.492188 26.730469 213.925781 26.128906 213.324219 C 25.527344 212.726562 24.957031 212.097656 24.417969 211.441406 C 23.878906 210.785156 23.371094 210.105469 22.898438 209.398438 C 22.425781 208.695312 21.988281 207.96875 21.589844 207.21875 C 21.1875 206.46875 20.824219 205.703125 20.5 204.921875 C 20.171875 204.136719 19.886719 203.339844 19.640625 202.527344 C 19.390625 201.714844 19.1875 200.894531 19.019531 200.0625 C 18.855469 199.230469 18.730469 198.390625 18.644531 197.546875 C 18.5625 196.703125 18.519531 195.855469 18.519531 195.007812 C 18.519531 194.160156 18.5625 193.3125 18.644531 192.46875 C 18.730469 191.625 18.855469 190.785156 19.019531 189.953125 C 19.1875 189.121094 19.390625 188.300781 19.640625 187.488281 C 19.886719 186.675781 20.171875 185.878906 20.5 185.09375 C 20.824219 184.308594 21.1875 183.542969 21.589844 182.796875 C 21.988281 182.046875 22.425781 181.320312 22.898438 180.617188 C 23.371094 179.910156 23.878906 179.230469 24.417969 178.574219 C 24.957031 177.917969 25.527344 177.289062 26.128906 176.691406 C 26.730469 176.089844 27.363281 175.519531 28.019531 174.984375 C 28.675781 174.445312 29.359375 173.941406 30.066406 173.46875 C 30.773438 172.996094 31.503906 172.5625 32.253906 172.160156 C 33.003906 171.761719 33.773438 171.398438 34.558594 171.074219 C 35.34375 170.75 36.144531 170.464844 36.960938 170.21875 C 37.773438 169.972656 38.597656 169.765625 39.433594 169.601562 C 40.269531 169.433594 41.109375 169.3125 41.957031 169.226562 C 42.800781 169.144531 43.652344 169.101562 44.503906 169.101562 C 45.351562 169.101562 46.203125 169.144531 47.046875 169.226562 C 47.894531 169.3125 48.738281 169.433594 49.570312 169.601562 C 50.40625 169.765625 51.230469 169.972656 52.042969 170.21875 C 52.859375 170.464844 53.660156 170.75 54.445312 171.074219 C 55.230469 171.398438 56 171.761719 56.75 172.160156 C 57.5 172.5625 58.230469 172.996094 58.9375 173.46875 C 59.644531 173.941406 60.328125 174.445312 60.984375 174.984375 C 61.644531 175.519531 62.273438 176.089844 62.875 176.691406 C 63.476562 177.289062 64.046875 177.917969 64.585938 178.574219 C 65.125 179.230469 65.632812 179.910156 66.105469 180.617188 C 66.578125 181.320312 67.015625 182.046875 67.417969 182.796875 C 67.816406 183.542969 68.179688 184.308594 68.507812 185.09375 C 68.832031 185.878906 69.117188 186.675781 69.363281 187.488281 C 69.613281 188.300781 69.820312 189.121094 69.984375 189.953125 C 70.152344 190.785156 70.277344 191.625 70.359375 192.46875 C 70.441406 193.3125 70.484375 194.160156 70.484375 195.007812 Z M 70.484375 195.007812 " fill-opacity="1" fill-rule="nonzero"/></g></svg>