<svg xmlns="http://www.w3.org/2000/svg" xmlns:xlink="http://www.w3.org/1999/xlink" width="300" zoomAndPan="magnify" viewBox="0 0 224.87999 225" height="300" preserveAspectRatio="xMidYMid meet" version="1.0"><defs><clipPath id="id1"><path d="M 7.332031 4.039062 L 217.21875 4.039062 L 217.21875 220.671875 L 7.332031 220.671875 Z M 7.332031 4.039062 " clip-rule="nonzero"/></clipPath></defs><g clip-path="url(#id1)"><path fill="#ec5cef" d="M 168.785156 197.59375 L 168.785156 207.097656 C 168.785156 214.566406 174.847656 220.628906 182.3125 220.628906 C 189.777344 220.628906 195.839844 214.566406 195.839844 207.097656 L 195.839844 167.90625 C 195.839844 167.859375 195.839844 167.8125 195.835938 167.769531 C 195.796875 163.957031 194.15625 160.1875 191.015625 157.546875 C 188.515625 155.445312 185.476562 154.40625 182.445312 154.375 C 182.398438 154.375 182.355469 154.375 182.3125 154.375 L 143.128906 154.375 C 135.664062 154.375 129.601562 160.4375 129.601562 167.90625 C 129.601562 174.839844 134.828125 180.5625 141.550781 181.34375 C 132.515625 185.015625 122.644531 187.035156 112.300781 187.035156 C 69.308594 187.035156 34.402344 152.121094 34.402344 109.117188 C 34.402344 101.648438 28.34375 95.585938 20.878906 95.585938 C 13.410156 95.585938 7.347656 101.648438 7.347656 109.117188 C 7.347656 167.054688 54.378906 214.097656 112.300781 214.097656 C 133.089844 214.097656 152.476562 208.039062 168.785156 197.59375 Z M 28.769531 56.996094 C 28.808594 60.808594 30.445312 64.578125 33.585938 67.21875 C 36.085938 69.320312 39.128906 70.359375 42.160156 70.386719 C 42.203125 70.390625 42.246094 70.390625 42.292969 70.390625 L 81.472656 70.390625 C 88.9375 70.390625 95 64.328125 95 56.859375 C 95 49.925781 89.773438 44.203125 83.050781 43.421875 C 92.085938 39.75 101.960938 37.730469 112.300781 37.730469 C 155.292969 37.730469 190.199219 72.644531 190.199219 115.648438 C 190.199219 123.117188 196.261719 129.179688 203.726562 129.179688 C 211.191406 129.179688 217.253906 123.117188 217.253906 115.648438 C 217.253906 57.707031 170.226562 10.667969 112.300781 10.667969 C 91.511719 10.667969 72.125 16.726562 55.820312 27.171875 L 55.820312 17.667969 C 55.820312 10.199219 49.757812 4.136719 42.292969 4.136719 C 34.824219 4.136719 28.765625 10.199219 28.765625 17.667969 L 28.765625 56.859375 C 28.765625 56.90625 28.765625 56.953125 28.769531 56.996094 Z M 28.769531 56.996094 " fill-opacity="1" fill-rule="evenodd"/></g></svg>