<svg xmlns="http://www.w3.org/2000/svg" xmlns:xlink="http://www.w3.org/1999/xlink" width="300" zoomAndPan="magnify" viewBox="0 0 224.87999 225" height="300" preserveAspectRatio="xMidYMid meet" version="1.0"><defs><clipPath id="id1"><path d="M 17.300781 17.359375 L 207 17.359375 L 207 112 L 17.300781 112 Z M 17.300781 17.359375 " clip-rule="nonzero"/></clipPath><clipPath id="id2"><path d="M 17.300781 111 L 207 111 L 207 207 L 17.300781 207 Z M 17.300781 111 " clip-rule="nonzero"/></clipPath></defs><g clip-path="url(#id1)"><path fill="#ec5cef" d="M 23.214844 111.96875 L 46.867188 111.96875 C 50.128906 111.96875 52.777344 109.320312 52.777344 106.054688 C 52.777344 89.722656 66.011719 76.492188 82.34375 76.492188 L 159.210938 76.492188 L 159.210938 94.230469 C 159.210938 96.617188 160.65625 98.78125 162.867188 99.695312 C 165.078125 100.617188 167.621094 100.105469 169.3125 98.417969 L 204.789062 62.9375 C 207.097656 60.632812 207.097656 56.882812 204.789062 54.578125 L 169.3125 19.097656 C 167.621094 17.410156 165.078125 16.898438 162.867188 17.820312 C 160.65625 18.746094 159.210938 20.886719 159.210938 23.273438 L 159.210938 41.011719 L 82.34375 41.011719 C 46.417969 41.011719 17.300781 70.128906 17.300781 106.054688 C 17.300781 109.320312 19.949219 111.96875 23.214844 111.96875 Z M 23.214844 111.96875 " fill-opacity="1" fill-rule="nonzero"/></g><g clip-path="url(#id2)"><path fill="#ec5cef" d="M 200.605469 111.96875 L 176.953125 111.96875 C 173.6875 111.96875 171.039062 114.617188 171.039062 117.882812 C 171.039062 134.214844 157.804688 147.445312 141.472656 147.445312 L 64.605469 147.445312 L 64.605469 129.707031 C 64.605469 127.320312 63.160156 125.15625 60.949219 124.246094 C 58.738281 123.332031 56.207031 123.84375 54.503906 125.535156 L 19.027344 161.011719 C 16.722656 163.316406 16.722656 167.066406 19.027344 169.371094 L 54.503906 204.851562 C 56.195312 206.542969 58.738281 207.050781 60.949219 206.128906 C 63.160156 205.203125 64.605469 203.050781 64.605469 200.664062 L 64.605469 182.925781 L 141.472656 182.925781 C 177.402344 182.925781 206.515625 153.808594 206.515625 117.882812 C 206.515625 114.617188 203.867188 111.96875 200.605469 111.96875 Z M 200.605469 111.96875 " fill-opacity="1" fill-rule="nonzero"/></g></svg>