<svg xmlns="http://www.w3.org/2000/svg" xmlns:xlink="http://www.w3.org/1999/xlink" width="300" zoomAndPan="magnify" viewBox="0 0 224.87999 225" height="300" preserveAspectRatio="xMidYMid meet" version="1.0"><defs><clipPath id="id1"><path d="M 15.222656 126 L 99 126 L 99 208.816406 L 15.222656 208.816406 Z M 15.222656 126 " clip-rule="nonzero"/></clipPath></defs><g clip-path="url(#id1)"><path fill="#ec5cef" d="M 94.679688 172.742188 L 90.273438 171.167969 C 90.589844 168.015625 90.433594 164.710938 89.960938 161.558594 L 94.207031 159.667969 C 96.882812 158.410156 97.984375 155.257812 96.722656 152.738281 L 94.207031 147.382812 C 92.949219 144.703125 89.804688 143.601562 87.285156 144.863281 L 83.039062 146.753906 C 80.996094 144.230469 78.632812 142.027344 75.960938 140.136719 L 77.535156 135.726562 C 78.476562 133.046875 77.0625 129.898438 74.386719 128.953125 L 68.882812 126.90625 C 66.207031 125.960938 63.0625 127.378906 62.117188 130.054688 L 60.546875 134.464844 C 57.398438 134.152344 54.09375 134.308594 50.949219 134.78125 L 48.90625 130.371094 C 47.644531 127.691406 44.5 126.589844 41.984375 127.851562 L 36.636719 130.371094 C 33.960938 131.628906 32.859375 134.78125 34.117188 137.300781 L 36.007812 141.554688 C 33.488281 143.601562 31.285156 145.964844 29.398438 148.640625 L 24.996094 147.066406 C 22.320312 146.121094 19.175781 147.539062 18.230469 150.21875 L 16.1875 155.730469 C 15.714844 156.992188 15.714844 158.410156 16.34375 159.828125 C 16.972656 161.085938 17.917969 162.03125 19.332031 162.503906 L 23.738281 164.078125 C 23.421875 167.230469 23.578125 170.539062 24.050781 173.6875 L 19.804688 175.578125 C 17.128906 176.839844 16.027344 179.988281 17.285156 182.507812 L 19.804688 187.863281 C 21.0625 190.542969 24.207031 191.644531 26.726562 190.386719 L 30.972656 188.496094 C 33.015625 191.015625 35.375 193.21875 38.050781 195.109375 L 36.476562 199.519531 C 36.007812 200.78125 36.007812 202.199219 36.636719 203.617188 C 37.265625 204.878906 38.207031 205.820312 39.625 206.292969 L 45.128906 208.34375 C 46.386719 208.816406 47.804688 208.816406 49.21875 208.183594 C 50.476562 207.554688 51.421875 206.609375 51.894531 205.191406 L 53.464844 200.78125 C 56.613281 201.097656 59.914062 200.9375 63.0625 200.464844 L 64.949219 204.71875 C 66.207031 207.398438 69.355469 208.5 71.871094 207.238281 L 77.21875 204.71875 C 79.894531 203.460938 80.996094 200.308594 79.734375 197.789062 L 77.847656 193.535156 C 80.363281 191.488281 82.566406 189.125 84.453125 186.445312 L 88.859375 188.023438 C 90.117188 188.496094 91.691406 188.496094 92.949219 187.863281 C 94.207031 187.234375 95.152344 186.289062 95.625 184.871094 L 97.667969 179.359375 C 98.769531 176.839844 97.355469 173.84375 94.679688 172.742188 Z M 65.734375 186.605469 C 62.90625 187.863281 60.074219 188.496094 57.085938 188.496094 C 48.90625 188.496094 41.511719 183.769531 38.207031 176.367188 C 33.332031 165.96875 38.050781 153.527344 48.433594 148.640625 C 51.265625 147.382812 54.09375 146.753906 57.085938 146.753906 C 65.265625 146.753906 72.65625 151.476562 75.960938 158.882812 C 80.679688 169.433594 76.117188 181.722656 65.734375 186.605469 Z M 65.734375 186.605469 " fill-opacity="1" fill-rule="nonzero"/></g><path fill="#ec5cef" d="M 201.960938 95.085938 L 194.566406 92.40625 C 195.195312 87.050781 194.882812 81.539062 193.9375 76.183594 L 201.015625 72.875 C 205.421875 70.828125 207.464844 65.628906 205.421875 61.0625 L 201.332031 52.082031 C 199.285156 47.671875 194.09375 45.625 189.53125 47.671875 L 182.453125 50.980469 C 178.992188 46.726562 174.902344 42.945312 170.5 39.953125 L 173.171875 32.550781 C 174.902344 27.980469 172.542969 22.785156 167.980469 21.207031 L 158.703125 17.742188 C 154.296875 16.167969 148.949219 18.53125 147.375 22.941406 L 144.703125 30.34375 C 139.351562 29.714844 133.847656 30.03125 128.5 30.976562 L 125.195312 23.886719 C 123.152344 19.476562 117.960938 17.429688 113.398438 19.476562 L 104.433594 23.570312 C 100.027344 25.621094 97.984375 30.816406 100.027344 35.386719 L 103.332031 42.472656 C 99.085938 45.9375 95.308594 50.035156 92.320312 54.445312 L 84.925781 51.765625 C 80.523438 50.191406 75.175781 52.554688 73.601562 56.964844 L 70.140625 66.257812 C 69.355469 68.464844 69.355469 70.828125 70.453125 73.03125 C 71.398438 75.238281 73.285156 76.8125 75.488281 77.601562 L 82.882812 80.277344 C 82.253906 85.632812 82.410156 91.148438 83.511719 96.503906 L 76.433594 99.8125 C 72.027344 101.859375 69.984375 107.058594 72.027344 111.625 L 76.117188 120.605469 C 78.164062 125.015625 83.355469 127.0625 87.914062 125.015625 L 94.996094 121.707031 C 98.453125 125.960938 102.542969 129.738281 106.949219 132.734375 L 104.273438 140.136719 C 103.488281 142.339844 103.488281 144.703125 104.589844 146.910156 C 105.535156 149.113281 107.421875 150.691406 109.625 151.476562 L 118.902344 154.941406 C 121.105469 155.730469 123.464844 155.730469 125.667969 154.628906 C 127.871094 153.683594 129.441406 151.792969 130.230469 149.585938 L 132.902344 142.183594 C 138.253906 142.8125 143.757812 142.65625 149.105469 141.554688 L 152.410156 148.640625 C 154.453125 153.054688 159.644531 155.101562 164.207031 153.054688 L 173.171875 148.957031 C 177.578125 146.910156 179.621094 141.710938 177.578125 137.144531 L 174.273438 130.054688 C 178.523438 126.589844 182.296875 122.492188 185.285156 118.082031 L 192.679688 120.761719 C 194.882812 121.550781 197.242188 121.550781 199.441406 120.445312 C 201.644531 119.5 203.21875 117.609375 204.003906 115.40625 L 207.464844 106.113281 C 208.878906 101.859375 206.519531 96.816406 201.960938 95.085938 Z M 153.351562 118.242188 C 148.792969 120.445312 143.757812 121.390625 138.722656 121.390625 C 125.039062 121.390625 112.613281 113.359375 106.949219 101.070312 C 98.769531 83.585938 106.476562 62.636719 123.9375 54.601562 C 128.5 52.398438 133.53125 51.453125 138.566406 51.453125 C 152.253906 51.453125 164.679688 59.484375 170.34375 71.773438 C 178.523438 89.257812 170.8125 110.207031 153.351562 118.242188 Z M 153.351562 118.242188 " fill-opacity="1" fill-rule="nonzero"/></svg>