<svg xmlns="http://www.w3.org/2000/svg" xmlns:xlink="http://www.w3.org/1999/xlink" width="300" zoomAndPan="magnify" viewBox="0 0 224.87999 225" height="300" preserveAspectRatio="xMidYMid meet" version="1.0"><defs><clipPath id="id1"><path d="M 133 134 L 209 134 L 209 209.457031 L 133 209.457031 Z M 133 134 " clip-rule="nonzero"/></clipPath></defs><path fill="#ec5cef" d="M 95.433594 170.34375 C 93.917969 170.34375 92.402344 170.300781 90.890625 170.207031 C 89.378906 170.113281 87.867188 169.976562 86.363281 169.792969 C 84.859375 169.605469 83.363281 169.375 81.871094 169.097656 C 80.378906 168.820312 78.898438 168.5 77.429688 168.132812 C 75.957031 167.765625 74.5 167.351562 73.054688 166.894531 C 71.609375 166.4375 70.179688 165.9375 68.765625 165.390625 C 67.351562 164.847656 65.953125 164.257812 64.574219 163.625 C 63.195312 162.996094 61.839844 162.324219 60.5 161.609375 C 59.164062 160.894531 57.851562 160.140625 56.558594 159.34375 C 55.269531 158.550781 54.003906 157.71875 52.761719 156.84375 C 51.523438 155.972656 50.3125 155.0625 49.128906 154.113281 C 47.945312 153.167969 46.789062 152.1875 45.667969 151.167969 C 44.542969 150.148438 43.453125 149.097656 42.390625 148.015625 C 41.332031 146.929688 40.308594 145.8125 39.316406 144.664062 C 38.328125 143.515625 37.375 142.339844 36.453125 141.132812 C 35.535156 139.925781 34.65625 138.695312 33.8125 137.433594 C 32.972656 136.171875 32.167969 134.886719 31.40625 133.578125 C 30.640625 132.269531 29.917969 130.9375 29.238281 129.582031 C 28.554688 128.230469 27.914062 126.855469 27.316406 125.460938 C 26.71875 124.070312 26.167969 122.65625 25.65625 121.230469 C 25.144531 119.804688 24.675781 118.363281 24.253906 116.90625 C 23.832031 115.449219 23.457031 113.980469 23.125 112.503906 C 22.792969 111.023438 22.503906 109.535156 22.261719 108.039062 C 22.023438 106.542969 21.828125 105.039062 21.679688 103.53125 C 21.53125 102.023438 21.429688 100.511719 21.371094 98.996094 C 21.316406 97.480469 21.308594 95.964844 21.34375 94.449219 C 21.382812 92.933594 21.464844 91.421875 21.597656 89.910156 C 21.726562 88.398438 21.902344 86.894531 22.125 85.394531 C 22.347656 83.894531 22.617188 82.402344 22.929688 80.921875 C 23.242188 79.4375 23.601562 77.964844 24.007812 76.503906 C 24.410156 75.042969 24.859375 73.597656 25.355469 72.164062 C 25.847656 70.730469 26.382812 69.3125 26.964844 67.910156 C 27.546875 66.511719 28.167969 65.128906 28.832031 63.765625 C 29.5 62.40625 30.203125 61.0625 30.953125 59.746094 C 31.699219 58.425781 32.488281 57.132812 33.3125 55.859375 C 34.140625 54.589844 35.003906 53.347656 35.910156 52.128906 C 36.8125 50.910156 37.753906 49.722656 38.730469 48.5625 C 39.703125 47.402344 40.714844 46.273438 41.761719 45.175781 C 42.808594 44.078125 43.886719 43.015625 44.996094 41.980469 C 46.105469 40.949219 47.25 39.953125 48.421875 38.992188 C 49.59375 38.03125 50.792969 37.105469 52.023438 36.21875 C 53.25 35.332031 54.507812 34.480469 55.789062 33.671875 C 57.070312 32.859375 58.375 32.089844 59.703125 31.359375 C 61.03125 30.628906 62.378906 29.941406 63.75 29.292969 C 65.121094 28.644531 66.511719 28.039062 67.917969 27.476562 C 69.328125 26.914062 70.75 26.394531 72.191406 25.921875 C 73.628906 25.445312 75.082031 25.015625 76.546875 24.628906 C 78.015625 24.242188 79.492188 23.902344 80.976562 23.609375 C 82.464844 23.3125 83.960938 23.0625 85.460938 22.859375 C 86.964844 22.65625 88.472656 22.5 89.984375 22.390625 C 91.496094 22.277344 93.011719 22.214844 94.527344 22.195312 C 96.042969 22.179688 97.558594 22.207031 99.070312 22.28125 C 100.585938 22.355469 102.097656 22.480469 103.601562 22.648438 C 105.109375 22.816406 106.609375 23.027344 108.101562 23.289062 C 109.597656 23.546875 111.082031 23.855469 112.554688 24.207031 C 114.03125 24.554688 115.492188 24.953125 116.945312 25.394531 C 118.394531 25.835938 119.828125 26.320312 121.25 26.847656 C 122.671875 27.378906 124.074219 27.949219 125.460938 28.566406 C 126.84375 29.179688 128.210938 29.835938 129.554688 30.535156 C 130.902344 31.234375 132.222656 31.976562 133.523438 32.753906 C 134.824219 33.535156 136.097656 34.355469 137.347656 35.214844 C 138.597656 36.070312 139.820312 36.96875 141.015625 37.902344 C 142.207031 38.835938 143.375 39.804688 144.507812 40.808594 C 145.644531 41.8125 146.746094 42.851562 147.816406 43.925781 C 149.105469 45.210938 150.34375 46.542969 151.53125 47.917969 C 152.71875 49.296875 153.855469 50.714844 154.941406 52.175781 C 156.027344 53.636719 157.054688 55.132812 158.027344 56.671875 C 159.003906 58.207031 159.917969 59.777344 160.777344 61.382812 C 161.636719 62.984375 162.433594 64.617188 163.171875 66.28125 C 163.910156 67.945312 164.585938 69.632812 165.199219 71.34375 C 165.8125 73.054688 166.359375 74.789062 166.847656 76.542969 C 167.332031 78.296875 167.753906 80.0625 168.109375 81.847656 C 168.464844 83.632812 168.753906 85.425781 168.976562 87.230469 C 169.199219 89.035156 169.355469 90.847656 169.445312 92.664062 C 169.535156 94.480469 169.554688 96.300781 169.511719 98.117188 C 169.46875 99.9375 169.355469 101.75 169.175781 103.5625 C 169 105.371094 168.753906 107.171875 168.445312 108.964844 C 168.132812 110.757812 167.757812 112.535156 167.3125 114.300781 C 166.871094 116.066406 166.367188 117.8125 165.796875 119.539062 C 165.222656 121.265625 164.589844 122.96875 163.894531 124.648438 C 163.199219 126.332031 162.441406 127.984375 161.621094 129.605469 C 160.804688 131.230469 159.929688 132.824219 158.992188 134.382812 C 158.058594 135.945312 157.066406 137.46875 156.015625 138.953125 C 154.96875 140.441406 153.867188 141.886719 152.714844 143.292969 C 151.558594 144.699219 150.355469 146.0625 149.101562 147.378906 C 147.84375 148.695312 146.542969 149.964844 145.195312 151.1875 C 143.847656 152.40625 142.457031 153.578125 141.019531 154.695312 C 139.585938 155.8125 138.113281 156.878906 136.601562 157.886719 C 135.085938 158.898438 133.539062 159.851562 131.957031 160.746094 C 130.371094 161.640625 128.757812 162.476562 127.113281 163.253906 C 125.46875 164.03125 123.796875 164.746094 122.101562 165.402344 C 120.402344 166.054688 118.683594 166.644531 116.941406 167.171875 C 115.199219 167.699219 113.441406 168.160156 111.667969 168.558594 C 109.890625 168.953125 108.105469 169.285156 106.304688 169.550781 C 104.503906 169.816406 102.699219 170.015625 100.882812 170.148438 C 99.070312 170.28125 97.253906 170.347656 95.433594 170.34375 Z M 95.433594 38.511719 C 94.332031 38.511719 93.226562 38.539062 92.125 38.601562 C 91.023438 38.660156 89.921875 38.753906 88.824219 38.875 C 87.726562 39 86.632812 39.15625 85.546875 39.34375 C 84.457031 39.527344 83.375 39.746094 82.300781 39.996094 C 81.222656 40.242188 80.15625 40.523438 79.097656 40.832031 C 78.035156 41.140625 76.984375 41.480469 75.945312 41.851562 C 74.90625 42.222656 73.875 42.621094 72.859375 43.050781 C 71.839844 43.476562 70.835938 43.9375 69.84375 44.421875 C 68.855469 44.910156 67.878906 45.421875 66.914062 45.964844 C 65.953125 46.507812 65.007812 47.078125 64.078125 47.675781 C 63.148438 48.269531 62.238281 48.894531 61.34375 49.542969 C 60.453125 50.191406 59.578125 50.863281 58.722656 51.5625 C 57.867188 52.261719 57.03125 52.984375 56.21875 53.730469 C 55.40625 54.480469 54.613281 55.25 53.84375 56.039062 C 53.074219 56.832031 52.332031 57.644531 51.605469 58.480469 C 50.882812 59.316406 50.1875 60.171875 49.511719 61.046875 C 48.839844 61.921875 48.191406 62.8125 47.570312 63.726562 C 46.945312 64.636719 46.351562 65.566406 45.78125 66.511719 C 45.210938 67.460938 44.667969 68.421875 44.15625 69.398438 C 43.640625 70.375 43.15625 71.367188 42.699219 72.371094 C 42.242188 73.378906 41.8125 74.394531 41.414062 75.425781 C 41.015625 76.453125 40.644531 77.492188 40.304688 78.542969 C 39.96875 79.59375 39.65625 80.65625 39.378906 81.722656 C 39.101562 82.792969 38.851562 83.867188 38.636719 84.949219 C 38.417969 86.03125 38.234375 87.121094 38.078125 88.214844 C 37.921875 89.308594 37.800781 90.40625 37.707031 91.503906 C 37.617188 92.605469 37.558594 93.707031 37.527344 94.8125 C 37.5 95.914062 37.503906 97.019531 37.539062 98.121094 C 37.570312 99.226562 37.636719 100.328125 37.734375 101.429688 C 37.832031 102.527344 37.964844 103.625 38.125 104.71875 C 38.285156 105.808594 38.476562 106.894531 38.699219 107.976562 C 38.921875 109.058594 39.175781 110.132812 39.460938 111.199219 C 39.746094 112.265625 40.058594 113.324219 40.40625 114.375 C 40.75 115.421875 41.125 116.460938 41.53125 117.488281 C 41.933594 118.515625 42.367188 119.53125 42.832031 120.535156 C 43.292969 121.535156 43.785156 122.523438 44.304688 123.5 C 44.824219 124.472656 45.371094 125.433594 45.945312 126.375 C 46.519531 127.320312 47.121094 128.246094 47.75 129.152344 C 48.375 130.0625 49.027344 130.953125 49.707031 131.824219 C 50.386719 132.695312 51.089844 133.542969 51.816406 134.375 C 52.542969 135.207031 53.292969 136.015625 54.066406 136.804688 C 54.839844 137.589844 55.636719 138.355469 56.453125 139.097656 C 57.273438 139.839844 58.109375 140.558594 58.96875 141.253906 C 59.828125 141.949219 60.707031 142.617188 61.601562 143.261719 C 62.5 143.90625 63.414062 144.523438 64.347656 145.113281 C 65.277344 145.707031 66.226562 146.269531 67.191406 146.808594 C 68.15625 147.34375 69.136719 147.851562 70.128906 148.335938 C 71.125 148.816406 72.132812 149.265625 73.152344 149.691406 C 74.171875 150.113281 75.203125 150.507812 76.246094 150.871094 C 77.289062 151.234375 78.339844 151.570312 79.402344 151.875 C 80.460938 152.175781 81.53125 152.449219 82.609375 152.691406 C 83.6875 152.9375 84.769531 153.148438 85.859375 153.328125 C 86.949219 153.507812 88.042969 153.65625 89.140625 153.773438 C 90.238281 153.894531 91.339844 153.980469 92.441406 154.035156 C 93.542969 154.089844 94.648438 154.113281 95.753906 154.101562 C 96.855469 154.09375 97.960938 154.054688 99.0625 153.984375 C 100.164062 153.910156 101.261719 153.808594 102.359375 153.671875 C 103.453125 153.539062 104.546875 153.371094 105.632812 153.175781 C 106.71875 152.976562 107.796875 152.75 108.871094 152.488281 C 109.945312 152.230469 111.011719 151.941406 112.066406 151.621094 C 113.125 151.300781 114.171875 150.949219 115.207031 150.570312 C 116.242188 150.191406 117.269531 149.78125 118.28125 149.339844 C 119.296875 148.902344 120.296875 148.433594 121.28125 147.9375 C 122.269531 147.441406 123.238281 146.917969 124.195312 146.367188 C 125.152344 145.8125 126.09375 145.234375 127.015625 144.628906 C 127.9375 144.023438 128.84375 143.390625 129.730469 142.734375 C 130.617188 142.074219 131.484375 141.394531 132.332031 140.6875 C 133.179688 139.976562 134.007812 139.246094 134.8125 138.492188 C 135.621094 137.738281 136.402344 136.960938 137.164062 136.160156 C 137.925781 135.359375 138.664062 134.539062 139.378906 133.699219 C 140.09375 132.855469 140.78125 131.992188 141.445312 131.113281 C 142.113281 130.230469 142.75 129.332031 143.363281 128.414062 C 143.976562 127.496094 144.5625 126.558594 145.125 125.609375 C 145.683594 124.65625 146.214844 123.6875 146.71875 122.707031 C 147.226562 121.722656 147.699219 120.726562 148.148438 119.71875 C 148.59375 118.710938 149.011719 117.6875 149.402344 116.652344 C 149.789062 115.621094 150.148438 114.578125 150.476562 113.523438 C 150.808594 112.46875 151.105469 111.40625 151.375 110.335938 C 151.640625 109.261719 151.878906 108.183594 152.085938 107.101562 C 152.289062 106.015625 152.464844 104.925781 152.609375 103.832031 C 152.753906 102.734375 152.867188 101.636719 152.945312 100.535156 C 153.027344 99.433594 153.078125 98.332031 153.09375 97.230469 C 153.113281 96.125 153.097656 95.019531 153.050781 93.917969 C 153.007812 92.8125 152.929688 91.714844 152.820312 90.613281 C 152.710938 89.515625 152.570312 88.421875 152.398438 87.328125 C 152.226562 86.238281 152.023438 85.152344 151.792969 84.074219 C 151.558594 82.996094 151.292969 81.921875 151 80.859375 C 150.703125 79.796875 150.378906 78.742188 150.023438 77.695312 C 149.667969 76.648438 149.28125 75.617188 148.867188 74.59375 C 148.453125 73.570312 148.007812 72.558594 147.535156 71.5625 C 147.0625 70.5625 146.5625 69.578125 146.03125 68.609375 C 145.503906 67.640625 144.945312 66.6875 144.363281 65.75 C 143.777344 64.8125 143.167969 63.894531 142.53125 62.992188 C 141.894531 62.089844 141.234375 61.207031 140.546875 60.339844 C 139.859375 59.476562 139.148438 58.632812 138.410156 57.808594 C 137.675781 56.984375 136.917969 56.183594 136.136719 55.402344 C 133.464844 52.730469 130.554688 50.34375 127.414062 48.242188 C 124.273438 46.140625 120.957031 44.363281 117.464844 42.914062 C 113.972656 41.464844 110.371094 40.371094 106.664062 39.628906 C 102.957031 38.890625 99.214844 38.515625 95.433594 38.511719 Z M 95.433594 38.511719 " fill-opacity="1" fill-rule="nonzero"/><g clip-path="url(#id1)"><path fill="#ec5cef" d="M 200.445312 209.457031 C 199.367188 209.453125 198.332031 209.246094 197.335938 208.828125 C 196.34375 208.414062 195.464844 207.820312 194.707031 207.058594 L 136.300781 148.691406 C 135.921875 148.3125 135.582031 147.902344 135.285156 147.457031 C 134.988281 147.011719 134.738281 146.542969 134.535156 146.050781 C 134.328125 145.554688 134.175781 145.046875 134.070312 144.519531 C 133.964844 143.996094 133.914062 143.46875 133.914062 142.933594 C 133.914062 142.398438 133.964844 141.867188 134.070312 141.34375 C 134.175781 140.820312 134.328125 140.308594 134.535156 139.816406 C 134.738281 139.320312 134.988281 138.851562 135.285156 138.40625 C 135.582031 137.960938 135.921875 137.550781 136.300781 137.171875 C 136.675781 136.792969 137.089844 136.457031 137.535156 136.160156 C 137.976562 135.863281 138.449219 135.613281 138.941406 135.40625 C 139.433594 135.203125 139.945312 135.046875 140.46875 134.945312 C 140.992188 134.839844 141.523438 134.789062 142.058594 134.789062 C 142.59375 134.789062 143.121094 134.839844 143.648438 134.945312 C 144.171875 135.046875 144.679688 135.203125 145.175781 135.40625 C 145.667969 135.613281 146.136719 135.863281 146.582031 136.160156 C 147.027344 136.457031 147.4375 136.792969 147.816406 137.171875 L 206.183594 195.578125 C 206.75 196.148438 207.21875 196.789062 207.597656 197.496094 C 207.972656 198.203125 208.242188 198.953125 208.394531 199.738281 C 208.550781 200.527344 208.589844 201.320312 208.511719 202.117188 C 208.433594 202.917969 208.238281 203.6875 207.933594 204.429688 C 207.625 205.171875 207.21875 205.851562 206.710938 206.472656 C 206.203125 207.09375 205.617188 207.628906 204.949219 208.078125 C 204.28125 208.523438 203.566406 208.863281 202.800781 209.101562 C 202.03125 209.335938 201.246094 209.457031 200.445312 209.457031 Z M 200.445312 209.457031 " fill-opacity="1" fill-rule="nonzero"/></g></svg>