<svg xmlns="http://www.w3.org/2000/svg" xmlns:xlink="http://www.w3.org/1999/xlink" width="300" zoomAndPan="magnify" viewBox="0 0 224.87999 225" height="300" preserveAspectRatio="xMidYMid meet" version="1.0"><defs><clipPath id="id1"><path d="M 48 21.300781 L 110 21.300781 L 110 203.453125 L 48 203.453125 Z M 48 21.300781 " clip-rule="nonzero"/></clipPath><clipPath id="id2"><path d="M 8.589844 65 L 38 65 L 38 160 L 8.589844 160 Z M 8.589844 65 " clip-rule="nonzero"/></clipPath><clipPath id="id3"><path d="M 174 31 L 216.230469 31 L 216.230469 194 L 174 194 Z M 174 31 " clip-rule="nonzero"/></clipPath></defs><g clip-path="url(#id1)"><path fill="#ec5cef" d="M 48.839844 159.167969 L 109.0625 203.453125 L 109.0625 21.300781 L 48.839844 65.585938 Z M 48.839844 159.167969 " fill-opacity="1" fill-rule="nonzero"/></g><g clip-path="url(#id2)"><path fill="#ec5cef" d="M 8.6875 65.585938 L 37.128906 65.585938 L 37.128906 159.167969 L 8.6875 159.167969 Z M 8.6875 65.585938 " fill-opacity="1" fill-rule="nonzero"/></g><path fill="#ec5cef" d="M 122.316406 86.855469 C 120.359375 88.816406 120.359375 91.988281 122.320312 93.949219 C 127.246094 98.871094 129.964844 105.414062 129.964844 112.375 C 129.964844 119.339844 127.246094 125.882812 122.320312 130.808594 C 120.359375 132.765625 120.359375 135.941406 122.320312 137.898438 C 123.300781 138.878906 124.585938 139.367188 125.867188 139.367188 C 127.152344 139.367188 128.4375 138.878906 129.417969 137.898438 C 136.242188 131.082031 140 122.015625 140 112.375 C 140 102.734375 136.242188 93.671875 129.417969 86.855469 C 127.457031 84.898438 124.277344 84.898438 122.316406 86.855469 Z M 122.316406 86.855469 " fill-opacity="1" fill-rule="nonzero"/><path fill="#ec5cef" d="M 156.316406 59.992188 C 154.355469 58.035156 151.179688 58.03125 149.21875 59.988281 C 147.257812 61.945312 147.257812 65.117188 149.214844 67.078125 C 161.320312 79.1875 167.992188 95.273438 167.992188 112.375 C 167.992188 129.480469 161.324219 145.566406 149.214844 157.671875 C 147.257812 159.632812 147.257812 162.804688 149.21875 164.761719 C 150.199219 165.742188 151.480469 166.230469 152.765625 166.230469 C 154.050781 166.230469 155.335938 165.738281 156.316406 164.757812 C 170.316406 150.757812 178.027344 132.15625 178.027344 112.375 C 178.027344 92.597656 170.316406 73.996094 156.316406 59.992188 Z M 156.316406 59.992188 " fill-opacity="1" fill-rule="nonzero"/><g clip-path="url(#id3)"><path fill="#ec5cef" d="M 183.191406 33.136719 C 181.230469 31.179688 178.050781 31.179688 176.09375 33.136719 C 174.132812 35.09375 174.132812 38.265625 176.09375 40.226562 C 195.386719 59.496094 206.011719 85.121094 206.011719 112.375 C 206.011719 139.628906 195.386719 165.253906 176.09375 184.53125 C 174.132812 186.488281 174.132812 189.660156 176.09375 191.617188 C 177.074219 192.597656 178.355469 193.085938 179.640625 193.085938 C 180.921875 193.085938 182.210938 192.597656 183.1875 191.617188 C 204.378906 170.445312 216.050781 142.304688 216.050781 112.375 C 216.050781 82.441406 204.378906 54.300781 183.191406 33.136719 Z M 183.191406 33.136719 " fill-opacity="1" fill-rule="nonzero"/></g></svg>