<svg xmlns="http://www.w3.org/2000/svg" xmlns:xlink="http://www.w3.org/1999/xlink" width="300" zoomAndPan="magnify" viewBox="0 0 224.87999 225" height="300" preserveAspectRatio="xMidYMid meet" version="1.0"><defs><clipPath id="id1"><path d="M 10.515625 10.574219 L 214.40625 10.574219 L 214.40625 214.464844 L 10.515625 214.464844 Z M 10.515625 10.574219 " clip-rule="nonzero"/></clipPath></defs><g clip-path="url(#id1)"><path fill="#ec5cef" d="M 191.566406 10.574219 C 157.679688 10.574219 112.207031 33.824219 81.667969 73.796875 L 56.355469 73.796875 C 38.0625 73.796875 27.578125 87.449219 20.363281 101.886719 L 10.699219 121.214844 L 56.355469 121.214844 L 80.0625 144.921875 L 103.773438 168.628906 L 103.773438 214.289062 L 123.097656 204.625 C 137.535156 197.40625 151.1875 186.921875 151.1875 168.628906 L 151.1875 143.316406 C 191.160156 112.78125 214.410156 67.308594 214.410156 33.417969 L 214.410156 10.574219 Z M 151.1875 57.992188 C 159.917969 57.992188 166.996094 65.066406 166.996094 73.796875 C 166.996094 82.527344 159.917969 89.601562 151.1875 89.601562 C 142.460938 89.601562 135.382812 82.527344 135.382812 73.796875 C 135.382812 65.066406 142.460938 57.992188 151.1875 57.992188 Z M 48.453125 152.824219 L 40.550781 160.726562 C 29.136719 172.140625 24.746094 200.242188 24.746094 200.242188 C 24.746094 200.242188 51.582031 197.113281 64.257812 184.433594 L 72.160156 176.53125 Z M 48.453125 152.824219 " fill-opacity="1" fill-rule="nonzero"/></g></svg>