<svg xmlns="http://www.w3.org/2000/svg" xmlns:xlink="http://www.w3.org/1999/xlink" width="300" zoomAndPan="magnify" viewBox="0 0 224.87999 225" height="300" preserveAspectRatio="xMidYMid meet" version="1.0"><path fill="#ec5cef" d="M 123.394531 22.457031 C 127.078125 20.855469 131.355469 21.59375 134.292969 24.335938 L 209.914062 94.972656 C 211.957031 96.878906 213.117188 99.550781 213.117188 102.347656 C 213.117188 105.144531 211.957031 107.816406 209.914062 109.726562 L 134.292969 180.359375 C 131.355469 183.101562 127.078125 183.839844 123.394531 182.238281 C 119.710938 180.636719 117.332031 177 117.332031 172.984375 L 117.332031 132.621094 L 99.90625 132.621094 C 80.007812 132.621094 61.632812 143.292969 51.757812 160.582031 L 30.296875 198.171875 C 28.03125 202.144531 23.375 204.09375 18.957031 202.917969 C 14.539062 201.742188 11.460938 197.738281 11.460938 193.164062 L 11.460938 137.664062 C 11.460938 95.867188 45.316406 61.984375 87.082031 61.984375 L 117.332031 61.984375 L 117.332031 31.710938 C 117.332031 27.695312 119.710938 24.058594 123.394531 22.457031 Z M 137.496094 54.933594 L 137.496094 72.074219 C 137.496094 77.648438 132.980469 82.167969 127.414062 82.167969 L 87.082031 82.167969 C 56.453125 82.167969 31.625 107.015625 31.625 137.664062 L 31.625 155.167969 L 34.25 150.570312 C 47.714844 126.992188 72.769531 112.4375 99.90625 112.4375 L 127.414062 112.4375 C 132.980469 112.4375 137.496094 116.957031 137.496094 122.53125 L 137.496094 149.761719 L 188.257812 102.347656 Z M 137.496094 54.933594 " fill-opacity="1" fill-rule="evenodd"/></svg>