<?xml version="1.0" encoding="iso-8859-1"?>
<!-- Generator: Adobe Illustrator 19.0.0, SVG Export Plug-In . SVG Version: 6.00 Build 0)  -->
<svg version="1.1" id="Layer_1" xmlns="http://www.w3.org/2000/svg" xmlns:xlink="http://www.w3.org/1999/xlink" x="0px" y="0px"
	 viewBox="0 0 512 512" style="enable-background:new 0 0 512 512;" xml:space="preserve">
<polygon style="fill:#FFFFFF;" points="58,397.144 58,114.856 256,9.072 454,114.856 454,397.144 256,502.928 "/>
<path style="fill:#E21B1B;" d="M256,18.144l190,101.512V392.36L256,493.856L66,392.352V119.648L256,18.144 M256,0L50,110.056
	v291.888L256,512l206-110.056V110.056L256,0L256,0z"/>
<circle style="fill:#C9C9C9;" cx="186.088" cy="265.92" r="30.6"/>
<path style="fill:#E21B1B;" d="M238.864,364.312c0,0,0,1.424,0-27.08s-31.12-29.032-31.12-29.032h-43.32
	c0,0-31.12,0.352-31.12,29.032c0,28.512,0,27.08,0,27.08H238.864z"/>
<circle style="fill:#C9C9C9;" cx="325.912" cy="265.92" r="30.6"/>
<path style="fill:#E21B1B;" d="M378.688,364.312c0,0,0,1.424,0-27.08s-31.12-29.032-31.12-29.032h-43.32
	c0,0-31.12,0.352-31.12,29.032c0,28.512,0,27.08,0,27.08H378.688z"/>
<circle style="fill:#C9C9C9;" cx="256" cy="120.72" r="30.6"/>
<path style="fill:#E21B1B;" d="M308.776,219.144c0,0,0,1.424,0-27.08c0-28.512-31.12-29.032-31.12-29.032h-43.32
	c0,0-31.12,0.352-31.12,29.032c0,28.512,0,27.08,0,27.08H308.776z"/>
<g>
</g>
<g>
</g>
<g>
</g>
<g>
</g>
<g>
</g>
<g>
</g>
<g>
</g>
<g>
</g>
<g>
</g>
<g>
</g>
<g>
</g>
<g>
</g>
<g>
</g>
<g>
</g>
<g>
</g>
</svg>
